<?xml version="1.0" encoding="UTF-8" standalone="no"?><!DOCTYPE svg PUBLIC "-//W3C//DTD SVG 1.1//EN" "http://www.w3.org/Graphics/SVG/1.1/DTD/svg11.dtd"><svg width="100%" height="100%" viewBox="0 0 512 512" version="1.1" xmlns="http://www.w3.org/2000/svg" xmlns:xlink="http://www.w3.org/1999/xlink" xml:space="preserve" xmlns:serif="http://www.serif.com/" style="fill-rule:evenodd;clip-rule:evenodd;stroke-linejoin:round;stroke-miterlimit:1.41421;"><rect id="Moon" x="0" y="0" width="512" height="512" style="fill:none;"/><path id="full" d="M471.558,182.163c8.062,23.299 12.442,48.311 12.442,74.337c0,125.561 -101.939,227.5 -227.5,227.5c-120.288,0 -218.896,-93.557 -226.966,-211.812l256.059,-42.676l-255.006,0c2.998,-25.319 10.161,-49.368 20.783,-71.444l281.572,-46.928l-251.398,0c41.745,-50.177 104.647,-82.14 174.956,-82.14c84.721,0 158.688,46.411 197.842,115.174l-227.935,37.989l245.151,0Z" style="fill:#00a9ff;"/><path id="moon" d="M471.558,182.163c8.062,23.299 12.442,48.31 12.442,74.337c0,125.561 -101.939,227.5 -227.5,227.5c-51.238,0 -98.542,-16.975 -136.591,-45.605c140.01,-3.887 253.062,-116.426 257.771,-256.232l93.878,0Zm-94.205,-25.158c-2.363,-39.473 -13.37,-76.633 -31.152,-109.61c45.708,19.654 83.705,53.863 108.141,96.779l-76.989,12.831Z" style="fill:url(#_Linear1);"/><path id="b" d="M119.909,438.395c17.534,13.193 7.778,5.807 0.737,0.553c-51.683,-38.561 -86.458,-98.552 -91.112,-166.76l256.059,-42.676l-255.006,0c2.998,-25.319 10.161,-49.368 20.783,-71.444l281.572,-46.928l-251.398,0c41.745,-50.177 104.647,-82.14 174.956,-82.14c31.846,0 62.172,6.558 89.701,18.395c17.782,32.977 28.789,70.137 31.152,109.61l-150.946,25.158l151.273,0c-4.709,139.806 -117.761,252.345 -257.771,256.232Z" style="fill:url(#_Radial2);"/><path d="M320.003,37.997c57.341,16.659 105.369,55.299 134.339,106.177l-227.935,37.989l245.151,0c8.062,23.3 12.442,48.311 12.442,74.337c0,103.242 -68.92,190.514 -163.223,218.277l-215.254,-215.254l180.07,-30.011l-157.105,0l101.156,-101.156l103.298,-17.216l-86.082,0l73.143,-73.143Z" style="fill:#fff;fill-opacity:0.101961;"/><path d="M472.389,184.611c7.532,22.6 11.611,46.772 11.611,71.889c0,24.839 -3.989,48.754 -11.362,71.138l-71.638,-71.638l71.389,-71.389Z" style="fill:#fff;fill-opacity:0.101961;"/><path d="M374.837,182.163l96.721,0c8.062,23.3 12.442,48.311 12.442,74.337c0,51.316 -17.027,98.686 -45.735,136.765l-137.265,-137.265l73.837,-73.837Zm62.997,-62.997c6.029,7.944 11.548,16.297 16.508,25.008l-49.819,8.303l33.311,-33.311Z" style="fill:#fff;fill-opacity:0.101961;"/><path d="M229.399,30.601c8.888,-1.057 17.931,-1.601 27.101,-1.601c84.721,0 158.688,46.411 197.842,115.174l-227.935,37.989l245.151,0c8.062,23.3 12.442,48.311 12.442,74.337c0,125.561 -101.939,227.5 -227.5,227.5c-8.781,0 -17.446,-0.499 -25.969,-1.469l-200.062,-200.062c-0.387,-3.405 -0.7,-6.832 -0.935,-10.281l256.059,-42.676l-255.006,0l0.014,-0.113l81.443,-81.443l220.898,-36.816l-184.082,0l80.539,-80.539Z" style="fill:#fff;fill-opacity:0.101961;"/><path d="M227.488,229.512l47.349,-47.349l196.721,0c8.062,23.3 12.442,48.311 12.442,74.337c0,76.811 -38.149,144.782 -96.517,185.983l-186.483,-186.483l14.867,-14.867l69.726,-11.621l-58.105,0Zm159.408,-159.408c27.594,19.348 50.703,44.665 67.446,74.07l-169.819,28.303l102.373,-102.373Z" style="fill:#fff;fill-opacity:0.101961;"/><defs><linearGradient id="_Linear1" x1="0" y1="0" x2="1" y2="0" gradientUnits="userSpaceOnUse" gradientTransform="matrix(364.091,0,0,436.605,119.909,265.697)"><stop offset="0" style="stop-color:#b1007f;stop-opacity:1"/><stop offset="0.3" style="stop-color:#ff00e1;stop-opacity:1"/><stop offset="0.81" style="stop-color:#ffa400;stop-opacity:1"/><stop offset="1" style="stop-color:#ff8b00;stop-opacity:1"/></linearGradient><radialGradient id="_Radial2" cx="0" cy="0" r="1" gradientUnits="userSpaceOnUse" gradientTransform="matrix(310.04,0,0,310.04,88,164)"><stop offset="0" style="stop-color:#00a9ff;stop-opacity:1"/><stop offset="0.9" style="stop-color:#00afff;stop-opacity:1"/><stop offset="1" style="stop-color:#000;stop-opacity:1"/></radialGradient></defs></svg>